<?xml version="1.0" encoding="UTF-8"?>
<svg id="Capa_1" data-name="Capa 1" xmlns="http://www.w3.org/2000/svg" viewBox="0 0 132.37 138.23">
  <defs>
    <style>
      .cls-1 {
        fill: #1d1d1b;
      }
    </style>
  </defs>
  <path class="cls-1" d="M121.27,0H11.1C4.98,0,0,4.98,0,11.1V127.13c0,6.12,4.98,11.1,11.1,11.1H121.27c6.12,0,11.1-4.98,11.1-11.1V11.1c0-6.12-4.98-11.1-11.1-11.1Zm0,133.86H11.1c-3.71,0-6.73-3.02-6.73-6.73V11.1c0-3.71,3.02-6.73,6.73-6.73H121.27c3.71,0,6.73,3.02,6.73,6.73V127.13c0,3.71-3.02,6.73-6.73,6.73Z"/>
  <path class="cls-1" d="M31.09,40.31H15.29c-1.83,0-3.33-1.49-3.33-3.33v-15.8c0-1.83,1.49-3.33,3.33-3.33h15.8c1.83,0,3.33,1.49,3.33,3.33v15.8c0,1.83-1.49,3.33-3.33,3.33ZM15.29,20.05c-.63,0-1.14,.51-1.14,1.14v15.8c0,.63,.51,1.14,1.14,1.14h15.8c.63,0,1.14-.51,1.14-1.14v-15.8c0-.63-.51-1.14-1.14-1.14H15.29Z"/>
  <path class="cls-1" d="M59.75,40.31h-15.8c-1.83,0-3.33-1.49-3.33-3.33v-15.8c0-1.83,1.49-3.33,3.33-3.33h15.8c1.83,0,3.33,1.49,3.33,3.33v15.8c0,1.83-1.49,3.33-3.33,3.33Zm-15.8-20.26c-.63,0-1.14,.51-1.14,1.14v15.8c0,.63,.51,1.14,1.14,1.14h15.8c.63,0,1.14-.51,1.14-1.14v-15.8c0-.63-.51-1.14-1.14-1.14h-15.8Z"/>
  <path class="cls-1" d="M88.42,40.31h-15.8c-1.83,0-3.33-1.49-3.33-3.33v-15.8c0-1.83,1.49-3.33,3.33-3.33h15.8c1.83,0,3.32,1.49,3.32,3.33v15.8c0,1.83-1.49,3.33-3.32,3.33Zm-15.8-20.26c-.63,0-1.14,.51-1.14,1.14v15.8c0,.63,.51,1.14,1.14,1.14h15.8c.63,0,1.14-.51,1.14-1.14v-15.8c0-.63-.51-1.14-1.14-1.14h-15.8Z"/>
  <path class="cls-1" d="M117.08,40.31h-15.8c-1.83,0-3.32-1.49-3.32-3.33v-15.8c0-1.83,1.49-3.33,3.32-3.33h15.8c1.83,0,3.32,1.49,3.32,3.33v15.8c0,1.83-1.49,3.33-3.32,3.33Zm-15.8-20.26c-.63,0-1.14,.51-1.14,1.14v15.8c0,.63,.51,1.14,1.14,1.14h15.8c.63,0,1.14-.51,1.14-1.14v-15.8c0-.63-.51-1.14-1.14-1.14h-15.8Z"/>
  <path class="cls-1" d="M31.09,67H15.29c-1.83,0-3.33-1.49-3.33-3.33v-15.8c0-1.83,1.49-3.33,3.33-3.33h15.8c1.83,0,3.33,1.49,3.33,3.33v15.8c0,1.83-1.49,3.33-3.33,3.33Zm-15.8-20.26c-.63,0-1.14,.51-1.14,1.14v15.8c0,.63,.51,1.14,1.14,1.14h15.8c.63,0,1.14-.51,1.14-1.14v-15.8c0-.63-.51-1.14-1.14-1.14H15.29Z"/>
  <path class="cls-1" d="M59.75,67h-15.8c-1.83,0-3.33-1.49-3.33-3.33v-15.8c0-1.83,1.49-3.33,3.33-3.33h15.8c1.83,0,3.33,1.49,3.33,3.33v15.8c0,1.83-1.49,3.33-3.33,3.33Zm-15.8-20.26c-.63,0-1.14,.51-1.14,1.14v15.8c0,.63,.51,1.14,1.14,1.14h15.8c.63,0,1.14-.51,1.14-1.14v-15.8c0-.63-.51-1.14-1.14-1.14h-15.8Z"/>
  <path class="cls-1" d="M88.42,67h-15.8c-1.83,0-3.33-1.49-3.33-3.33v-15.8c0-1.83,1.49-3.33,3.33-3.33h15.8c1.83,0,3.32,1.49,3.32,3.33v15.8c0,1.83-1.49,3.33-3.32,3.33Zm-15.8-20.26c-.63,0-1.14,.51-1.14,1.14v15.8c0,.63,.51,1.14,1.14,1.14h15.8c.63,0,1.14-.51,1.14-1.14v-15.8c0-.63-.51-1.14-1.14-1.14h-15.8Z"/>
  <path class="cls-1" d="M117.08,67h-15.8c-1.83,0-3.32-1.49-3.32-3.33v-15.8c0-1.83,1.49-3.33,3.32-3.33h15.8c1.83,0,3.32,1.49,3.32,3.33v15.8c0,1.83-1.49,3.33-3.32,3.33Zm-15.8-20.26c-.63,0-1.14,.51-1.14,1.14v15.8c0,.63,.51,1.14,1.14,1.14h15.8c.63,0,1.14-.51,1.14-1.14v-15.8c0-.63-.51-1.14-1.14-1.14h-15.8Z"/>
  <path class="cls-1" d="M31.09,93.68H15.29c-1.83,0-3.33-1.49-3.33-3.33v-15.8c0-1.83,1.49-3.33,3.33-3.33h15.8c1.83,0,3.33,1.49,3.33,3.33v15.8c0,1.83-1.49,3.33-3.33,3.33Zm-15.8-20.26c-.63,0-1.14,.51-1.14,1.14v15.8c0,.63,.51,1.14,1.14,1.14h15.8c.63,0,1.14-.51,1.14-1.14v-15.8c0-.63-.51-1.14-1.14-1.14H15.29Z"/>
  <path class="cls-1" d="M59.75,93.68h-15.8c-1.83,0-3.33-1.49-3.33-3.33v-15.8c0-1.83,1.49-3.33,3.33-3.33h15.8c1.83,0,3.33,1.49,3.33,3.33v15.8c0,1.83-1.49,3.33-3.33,3.33Zm-15.8-20.26c-.63,0-1.14,.51-1.14,1.14v15.8c0,.63,.51,1.14,1.14,1.14h15.8c.63,0,1.14-.51,1.14-1.14v-15.8c0-.63-.51-1.14-1.14-1.14h-15.8Z"/>
  <path class="cls-1" d="M88.42,93.68h-15.8c-1.83,0-3.33-1.49-3.33-3.33v-15.8c0-1.83,1.49-3.33,3.33-3.33h15.8c1.83,0,3.32,1.49,3.32,3.33v15.8c0,1.83-1.49,3.33-3.32,3.33Zm-15.8-20.26c-.63,0-1.14,.51-1.14,1.14v15.8c0,.63,.51,1.14,1.14,1.14h15.8c.63,0,1.14-.51,1.14-1.14v-15.8c0-.63-.51-1.14-1.14-1.14h-15.8Z"/>
  <path class="cls-1" d="M117.08,93.68h-15.8c-1.83,0-3.32-1.49-3.32-3.33v-15.8c0-1.83,1.49-3.33,3.32-3.33h15.8c1.83,0,3.32,1.49,3.32,3.33v15.8c0,1.83-1.49,3.33-3.32,3.33Zm-15.8-20.26c-.63,0-1.14,.51-1.14,1.14v15.8c0,.63,.51,1.14,1.14,1.14h15.8c.63,0,1.14-.51,1.14-1.14v-15.8c0-.63-.51-1.14-1.14-1.14h-15.8Z"/>
  <path class="cls-1" d="M31.09,120.37H15.29c-1.83,0-3.33-1.49-3.33-3.33v-15.8c0-1.83,1.49-3.33,3.33-3.33h15.8c1.83,0,3.33,1.49,3.33,3.33v15.8c0,1.83-1.49,3.33-3.33,3.33Zm-15.8-20.26c-.63,0-1.14,.51-1.14,1.14v15.8c0,.63,.51,1.14,1.14,1.14h15.8c.63,0,1.14-.51,1.14-1.14v-15.8c0-.63-.51-1.14-1.14-1.14H15.29Z"/>
  <path class="cls-1" d="M59.75,120.37h-15.8c-1.83,0-3.33-1.49-3.33-3.33v-15.8c0-1.83,1.49-3.33,3.33-3.33h15.8c1.83,0,3.33,1.49,3.33,3.33v15.8c0,1.83-1.49,3.33-3.33,3.33Zm-15.8-20.26c-.63,0-1.14,.51-1.14,1.14v15.8c0,.63,.51,1.14,1.14,1.14h15.8c.63,0,1.14-.51,1.14-1.14v-15.8c0-.63-.51-1.14-1.14-1.14h-15.8Z"/>
  <path class="cls-1" d="M88.42,120.37h-15.8c-1.83,0-3.33-1.49-3.33-3.33v-15.8c0-1.83,1.49-3.33,3.33-3.33h15.8c1.83,0,3.32,1.49,3.32,3.33v15.8c0,1.83-1.49,3.33-3.32,3.33Zm-15.8-20.26c-.63,0-1.14,.51-1.14,1.14v15.8c0,.63,.51,1.14,1.14,1.14h15.8c.63,0,1.14-.51,1.14-1.14v-15.8c0-.63-.51-1.14-1.14-1.14h-15.8Z"/>
  <path class="cls-1" d="M117.08,120.37h-15.8c-1.83,0-3.32-1.49-3.32-3.33v-15.8c0-1.83,1.49-3.33,3.32-3.33h15.8c1.83,0,3.32,1.49,3.32,3.33v15.8c0,1.83-1.49,3.33-3.32,3.33Zm-15.8-20.26c-.63,0-1.14,.51-1.14,1.14v15.8c0,.63,.51,1.14,1.14,1.14h15.8c.63,0,1.14-.51,1.14-1.14v-15.8c0-.63-.51-1.14-1.14-1.14h-15.8Z"/>
  <path class="cls-1" d="M106.77,51.96h2.93c1.27,0,2.01,.71,2.01,1.75,0,.69-.33,1.2-.94,1.51,.64,.14,1.44,.57,1.44,1.71,0,1.52-1.15,2.13-2.39,2.13s-3.05,0-3.05,0v-7.09Zm1.81,2.73h.55c.41,0,.79-.16,.79-.71,0-.52-.42-.65-.82-.65h-.51v1.36Zm0,2.95h.86c.47,0,.92-.17,.92-.8,0-.58-.48-.76-.95-.76h-.82v1.56Z"/>
  <path class="cls-1" d="M78.41,54.16l1.7-2.2h2.33l-2.12,2.39s.4-.13,.75-.13c1.29,0,2.27,1.12,2.27,2.41,0,1.79-1.44,2.67-3.02,2.67-1.67,0-2.99-.99-2.99-2.65,0-1.01,.43-1.66,1.07-2.49Zm.75,2.51c0,.62,.48,1.11,1.15,1.11s1.17-.49,1.17-1.12-.46-1.11-1.17-1.11c-.65,0-1.15,.5-1.15,1.12Z"/>
  <path class="cls-1" d="M50.12,51.96h3.73v1.48h-2.51l-.12,.89s.34-.05,.56-.05c1.38,0,2.62,.85,2.62,2.39,0,1.71-1.49,2.64-2.91,2.64-1.01,0-1.79-.29-2.53-.72l.28-1.54s.93,.71,1.96,.71c.83,0,1.33-.43,1.33-1.11,0-.78-.77-1.1-1.67-1.1-.61,0-1.41,.27-1.41,.27l.68-3.85Z"/>
  <path class="cls-1" d="M19.71,56.38l3.07-4.15h1.85v4.2h.94v1.35h-.94v1.54h-1.78v-1.54h-3.15v-1.4Zm1.54,.06h1.65v-2.2l-1.65,2.2Z"/>
  <path class="cls-1" d="M105.98,32.52l2.63-7.08h2.12s2.63,7.08,2.63,7.08h-2l-.48-1.31h-2.45l-.47,1.31h-1.97Zm2.9-2.74h1.51l-.75-2.16-.76,2.16Z"/>
  <path class="cls-1" d="M77.96,27.16c0-1.35,1.18-2.24,2.48-2.24s2.48,.72,2.48,2.01c0,.61-.3,1.13-.82,1.4,.54,.2,1.26,.73,1.26,1.89,0,1.42-1.37,2.3-2.8,2.3-1.51,0-2.9-.9-2.9-2.56h1.83c0,.56,.24,1.05,1.02,1.05,.6,0,.96-.38,.96-.94,0-.73-.55-1.01-1.3-1.01h-.35v-1.19h.32c.7,0,1.09-.14,1.09-.81,0-.47-.35-.78-.78-.78-.47,0-.81,.39-.81,.89h-1.67Z"/>
  <path class="cls-1" d="M48.94,27.91c.02-1.6,.96-2.74,2.78-2.74,1.46,0,2.65,1.05,2.65,2.42s-1.09,2.42-2.18,3.42h2.37v1.5h-5.75l3.07-3.54c.29-.32,.65-.87,.65-1.38s-.33-.85-.87-.85c-.66,0-.87,.47-.87,1.17h-1.83Z"/>
  <path class="cls-1" d="M22.06,25.18h2.87v7.09h-1.85v-5.57h-1.02v-1.52Z"/>
  <path class="cls-1" d="M110.82,77.98c.75,0,1.21,.09,1.87,.44v1.92c-.43-.35-.9-.62-1.78-.62-1.2,0-1.87,.88-1.87,2.08,0,1.14,.84,1.9,1.96,1.9,.68,0,1.19-.27,1.66-.58v1.86c-.58,.26-1.05,.47-1.79,.47-2.04,0-3.71-1.48-3.71-3.66s1.56-3.81,3.64-3.81Z"/>
  <path class="cls-1" d="M82.5,83.02l-1.42,2.25h-2.24l1.92-2.62s-.62,.27-.97,.27c-1.3,0-2.18-.99-2.18-2.33,0-1.78,1.45-2.66,3.04-2.66,1.67,0,2.92,.91,2.92,2.56,0,.92-.48,1.62-1.07,2.53Zm-.77-2.52c0-.62-.48-1.11-1.15-1.11s-1.17,.49-1.17,1.12,.46,1.11,1.17,1.11c.65,0,1.15-.5,1.15-1.12Z"/>
  <path class="cls-1" d="M52.04,77.93c1.3,0,2.4,.69,2.4,1.88,0,.88-.46,1.37-1.18,1.62v.03s1.56,.28,1.56,1.89c0,1.4-1.19,2.18-2.88,2.18-1.79,0-2.77-.88-2.77-2.23,0-1.02,.73-1.66,1.55-1.81v-.04c-.28,0-1.24-.47-1.24-1.65s1.15-1.87,2.56-1.87Zm-1,5.25c0,.51,.42,.93,.93,.93,.61,0,.98-.43,.98-.96s-.4-.97-.94-.97-.97,.45-.97,1.01Zm.1-3.26c0,.49,.36,.81,.83,.81,.51,0,.8-.32,.8-.84,0-.45-.36-.75-.81-.75s-.81,.34-.81,.78Z"/>
  <path class="cls-1" d="M20.25,78.18h5.81l-3.89,7.09h-2.17l3.23-5.59h-2.98v-1.5Z"/>
  <path class="cls-1" d="M107.18,104.4h2.96c1.91,0,3.37,1.42,3.37,3.46s-1.38,3.63-3.35,3.63h-2.98v-7.09Zm1.88,5.49h.81c1.09,0,1.77-.87,1.77-2.06,0-1.08-.72-1.89-1.71-1.89h-.87v3.95Z"/>
  <path class="cls-1" d="M78.84,110h-1.01l.13-.79h1.03l.36-1.92h-1.02l.14-.79h1.03l.35-1.85h.82l-.36,1.85h1.26l.35-1.85h.81l-.35,1.85h1.01l-.14,.79h-1.02l-.35,1.92h1.01l-.18,.79h-.98l-.33,1.76h-.82l.33-1.76h-1.26l-.32,1.76h-.81l.32-1.76Zm.97-.79h1.26l.35-1.92h-1.26l-.35,1.92Z"/>
  <path class="cls-1" d="M51.89,104.45c1.95,0,3.39,1.54,3.39,3.74s-1.4,3.87-3.39,3.87-3.46-1.54-3.46-3.7c0-2.39,1.42-3.9,3.46-3.9Zm-1.63,3.83c0,1.34,.58,2.18,1.65,2.18s1.54-.9,1.54-2.22-.56-2.2-1.63-2.2-1.55,.9-1.55,2.24Z"/>
  <path class="cls-1" d="M22.05,110.19l.66-.82-.99-.35,.27-.73,.98,.37v-1.06h.77v1.06l.96-.31,.24,.73-.99,.29,.59,.86-.62,.43-.6-.84-.66,.83-.61-.46Z"/>
</svg>