<?xml version="1.0" encoding="UTF-8"?>
<svg id="Capa_1" data-name="Capa 1" xmlns="http://www.w3.org/2000/svg" viewBox="0 0 267.68 164.37">
  <defs>
    <style>
      .cls-1 {
        stroke: #1d1d1b;
        stroke-miterlimit: 10;
      }

      .cls-2 {
        fill: #1d1d1b;
      }
    </style>
  </defs>
  <g>
    <path d="M73.14,139.54c-.06-3.86-3.2-7.19-7.02-7.51-2.65-.22-5.32-.13-7.99-.18-.37,0-.74,0-1.08,0-.09-1.87-.11-3.6-.27-5.33-.3-3.22-3.47-6.4-6.73-6.65-2.31-.17-4.63-.17-6.94-.17-.73,0-1.01-.21-1.22-.91-3.2-10.75-6.41-21.49-9.69-32.22-1.31-4.3-4.93-7.18-9.05-7.4-4.41-.25-8.29,2.04-10.06,5.97-1.41,3.13-1.12,6.22,.3,9.26,2.81,6.02,5.63,12.03,8.45,18.05,1.11,2.37,2.21,4.75,3.35,7.18-.31,.02-.53,.04-.74,.06-1.77,.11-3.43,.54-4.88,1.63-2.3,1.74-3.3,4.09-3.35,6.91-.02,1.19,0,2.38,0,3.63-2.67,0-5.21-.02-7.74,0C3.49,131.91,0,135.41,0,140.4c0,5.17,0,10.33,0,15.5,0,5,3.49,8.45,8.52,8.46,2.25,0,4.51,0,6.76,0H58.09c2.42,0,4.83,.04,7.24-.02,4.16-.1,7.73-3.46,7.81-7.59,.12-5.73,.1-11.48,0-17.21ZM17.58,93.63c-.7-1.5-1.35-2.98-1.23-4.71,.2-2.79,2.32-5.21,4.96-5.59,2.99-.43,5.77,1.03,6.71,3.78,1.15,3.38,2.12,6.81,3.15,10.23,2.15,7.13,4.28,14.27,6.42,21.41,.08,.27,.15,.54,.26,.93-2.63,0-5.11-.02-7.58,.01-.69,0-.74-.5-.92-.9-3.93-8.39-7.85-16.78-11.78-25.17Zm3.01,33.11c.32-1.78,1.92-2.91,3.73-2.91,8.19-.02,16.37-.02,24.56,0,2.19,0,3.88,1.74,3.93,3.93,.03,1.32,0,2.65,0,4.06H20.31c.08-1.72-.02-3.44,.28-5.08Zm48.5,28.85c0,3.16-1.51,4.67-4.66,4.67-18.55,0-37.1,0-55.65,0-3.15,0-4.66-1.51-4.66-4.67,0-4.98,.06-9.96-.03-14.93-.06-3.24,2.21-4.73,4.69-4.7,9.31,.09,18.61,.04,27.92,.04s18.49,.05,27.73-.04c2.48-.02,4.75,1.46,4.69,4.7-.09,4.98-.02,9.96-.03,14.93Z"/>
    <path d="M170.37,139.54c-.06-3.86-3.2-7.19-7.02-7.51-2.65-.22-5.32-.13-7.99-.18-.37,0-.74,0-1.08,0-.09-1.87-.11-3.6-.27-5.33-.3-3.22-3.47-6.4-6.73-6.65-2.31-.17-4.63-.17-6.94-.17-.73,0-1.01-.21-1.22-.91-3.2-10.75-6.41-21.49-9.69-32.22-1.31-4.3-4.93-7.18-9.05-7.4-4.41-.25-8.29,2.04-10.06,5.97-1.41,3.13-1.12,6.22,.3,9.26,2.81,6.02,5.63,12.03,8.45,18.05,1.11,2.37,2.21,4.75,3.35,7.18-.31,.02-.53,.04-.74,.06-1.77,.11-3.43,.54-4.88,1.63-2.3,1.74-3.3,4.09-3.35,6.91-.02,1.19,0,2.38,0,3.63-2.67,0-5.21-.02-7.74,0-5,.05-8.47,3.55-8.48,8.54,0,5.17,0,10.33,0,15.5,0,5,3.49,8.45,8.52,8.46,2.25,0,4.51,0,6.76,0h42.8c2.42,0,4.83,.04,7.24-.02,4.16-.1,7.73-3.46,7.81-7.59,.12-5.73,.1-11.48,0-17.21Zm-55.57-45.91c-.7-1.5-1.35-2.98-1.23-4.71,.2-2.79,2.32-5.21,4.96-5.59,2.99-.43,5.77,1.03,6.71,3.78,1.15,3.38,2.12,6.81,3.15,10.23,2.15,7.13,4.28,14.27,6.42,21.41,.08,.27,.15,.54,.26,.93-2.63,0-5.11-.02-7.58,.01-.69,0-.74-.5-.92-.9-3.93-8.39-7.85-16.78-11.78-25.17Zm3.01,33.11c.32-1.78,1.92-2.91,3.73-2.91,8.19-.02,16.37-.02,24.56,0,2.19,0,3.88,1.74,3.93,3.93,.03,1.32,0,2.65,0,4.06h-32.5c.08-1.72-.02-3.44,.28-5.08Zm48.5,28.85c0,3.16-1.51,4.67-4.66,4.67-18.55,0-37.1,0-55.65,0-3.15,0-4.66-1.51-4.66-4.67,0-4.98,.06-9.96-.03-14.93-.06-3.24,2.21-4.73,4.69-4.7,9.31,.09,18.61,.04,27.92,.04s18.49,.05,27.73-.04c2.48-.02,4.75,1.46,4.69,4.7-.09,4.98-.02,9.96-.03,14.93Z"/>
    <path d="M267.6,139.54c-.06-3.86-3.2-7.19-7.02-7.51-2.65-.22-5.32-.13-7.99-.18-.37,0-.74,0-1.08,0-.09-1.87-.11-3.6-.27-5.33-.3-3.22-3.47-6.4-6.73-6.65-2.31-.17-4.63-.17-6.94-.17-.73,0-1.01-.21-1.22-.91-3.2-10.75-6.41-21.49-9.69-32.22-1.31-4.3-4.93-7.18-9.05-7.4-4.41-.25-8.29,2.04-10.06,5.97-1.41,3.13-1.12,6.22,.3,9.26,2.81,6.02,5.63,12.03,8.45,18.05,1.11,2.37,2.21,4.75,3.35,7.18-.31,.02-.53,.04-.74,.06-1.77,.11-3.43,.54-4.88,1.63-2.3,1.74-3.3,4.09-3.35,6.91-.02,1.19,0,2.38,0,3.63-2.67,0-5.21-.02-7.74,0-5,.05-8.47,3.55-8.48,8.54,0,5.17,0,10.33,0,15.5,0,5,3.49,8.45,8.52,8.46,2.25,0,4.51,0,6.76,0h42.8c2.42,0,4.83,.04,7.24-.02,4.16-.1,7.73-3.46,7.81-7.59,.12-5.73,.1-11.48,0-17.21Zm-55.57-45.91c-.7-1.5-1.35-2.98-1.23-4.71,.2-2.79,2.32-5.21,4.96-5.59,2.99-.43,5.77,1.03,6.71,3.78,1.15,3.38,2.12,6.81,3.15,10.23,2.15,7.13,4.28,14.27,6.42,21.41,.08,.27,.15,.54,.26,.93-2.63,0-5.11-.02-7.58,.01-.69,0-.74-.5-.92-.9-3.93-8.39-7.85-16.78-11.78-25.17Zm3.01,33.11c.32-1.78,1.92-2.91,3.73-2.91,8.19-.02,16.37-.02,24.56,0,2.19,0,3.88,1.74,3.93,3.93,.03,1.32,0,2.65,0,4.06h-32.5c.08-1.72-.02-3.44,.28-5.08Zm48.5,28.85c0,3.16-1.51,4.67-4.66,4.67-18.55,0-37.1,0-55.65,0-3.15,0-4.66-1.51-4.66-4.67,0-4.98,.06-9.96-.03-14.93-.06-3.24,2.21-4.73,4.69-4.7,9.31,.09,18.61,.04,27.92,.04s18.49,.05,27.73-.04c2.48-.02,4.75,1.46,4.69,4.7-.09,4.98-.02,9.96-.03,14.93Z"/>
  </g>
  <g>
    <path class="cls-2" d="M155.83,64.06c-3.66,0-7.31,0-10.91-.01-3.67,0-7.33-.01-11-.01h-13.55c-10.86,.02-21.73,.02-32.59-.02-3.47-.01-5.86-.36-7.11-2.06-1.26-1.72-.86-4.11,.25-7.66,4.68-14.92,5.28-15.39,20.96-15.39,.88,0,1.77,0,2.66,0,10.93,0,21.85,0,32.76,0h32.75c4.99,0,10.09,2.6,13.65,6.97,3.35,4.12,4.74,9.06,3.8,13.56-.55,2.66-5.19,4.42-7.43,4.46-8.05,.14-16.2,.17-24.25,.17Zm-21.91-3.39c3.67,0,7.34,0,11,.01,11.51,.02,23.41,.04,35.1-.16,1.49-.02,3.89-1.26,4.23-1.89,.69-3.4-.44-7.33-3.15-10.66-2.93-3.59-7.05-5.74-11.04-5.74h-32.75c-11.76,.01-23.51,0-35.27,.01-7.17,0-10.75,0-12.74,1.45-1.99,1.45-3.05,4.84-5.17,11.58-1.03,3.29-.97,4.36-.74,4.67,.22,.31,1.17,.67,4.41,.69,10.86,.04,21.72,.03,32.58,.03h13.55Z"/>
    <path class="cls-2" d="M167.47,37.74H100.21v-1.68c0-2.62-.02-5.2-.03-7.75-.04-6.02-.07-11.71,.09-17.5,.18-6.45,4.59-10.65,11.24-10.71,14.57-.13,29.51-.13,44.43,0,6.89,.06,11.29,4.34,11.47,11.16,.16,5.64,.12,11.2,.09,17.08-.02,2.53-.03,5.1-.03,7.71v1.68Zm-63.9-3.36h60.55c0-2.04,.02-4.06,.03-6.06,.04-5.85,.07-11.38-.09-16.97-.14-5.04-3.03-7.85-8.15-7.89-14.89-.13-29.82-.14-44.37,0-4.83,.04-7.79,2.83-7.91,7.44-.16,5.74-.13,11.4-.09,17.39,.01,2.01,.02,4.04,.03,6.09Z"/>
    <path class="cls-1" d="M109.38,22.61c.55,.11,1.1,.23,1.65,.34,.52-1.49,1.36-2.95,1.5-4.47,.42-4.78,2.28-7.62,7.66-7.38,1.72,.08,3.49-1.12,5.24-1.74-.21-.88-.41-1.77-.62-2.65-4.73,.8-10.4,.26-13.94,2.75-4.17,2.93-2.07,8.62-1.5,13.15Z"/>
  </g>
</svg>