<?xml version="1.0" encoding="UTF-8"?>
<svg id="Capa_1" data-name="Capa 1" xmlns="http://www.w3.org/2000/svg" viewBox="0 0 211.77 144.57">
  <defs>
    <style>
      .cls-1 {
        stroke: #1d1d1b;
        stroke-miterlimit: 10;
      }

      .cls-2 {
        fill: #1d1d1b;
      }
    </style>
  </defs>
  <g>
    <path class="cls-2" d="M127.87,144.57c-3.66,0-7.31,0-10.91-.01-3.67,0-7.33-.01-11-.01h-13.55c-10.86,.02-21.73,.02-32.59-.02-3.47-.01-5.86-.36-7.11-2.06-1.26-1.72-.86-4.11,.25-7.66,4.68-14.92,5.28-15.39,20.96-15.39,.88,0,1.77,0,2.66,0,10.93,0,21.85,0,32.76,0h32.75c4.99,0,10.09,2.6,13.65,6.97,3.35,4.12,4.74,9.06,3.8,13.56-.55,2.66-5.19,4.42-7.43,4.46-8.05,.14-16.2,.17-24.25,.17Zm-21.91-3.39c3.67,0,7.34,0,11,.01,11.51,.02,23.41,.04,35.1-.16,1.49-.02,3.89-1.26,4.23-1.89,.69-3.4-.44-7.33-3.15-10.66-2.93-3.59-7.05-5.74-11.04-5.74h-32.75c-11.76,.01-23.51,0-35.27,.01-7.17,0-10.75,0-12.74,1.45-1.99,1.45-3.05,4.84-5.17,11.58-1.03,3.29-.97,4.36-.74,4.67,.22,.31,1.17,.67,4.41,.69,10.86,.04,21.72,.03,32.58,.03h13.55Z"/>
    <path class="cls-2" d="M139.52,118.25H72.25v-1.68c0-2.62-.02-5.2-.03-7.75-.04-6.02-.07-11.71,.09-17.5,.18-6.45,4.59-10.65,11.24-10.71,14.57-.13,29.51-.13,44.43,0,6.89,.06,11.29,4.34,11.47,11.16,.16,5.64,.12,11.2,.09,17.08-.02,2.53-.03,5.1-.03,7.71v1.68Zm-63.9-3.36h60.55c0-2.04,.02-4.06,.03-6.06,.04-5.85,.07-11.38-.09-16.97-.14-5.04-3.03-7.85-8.15-7.89-14.89-.13-29.82-.14-44.37,0-4.83,.04-7.79,2.83-7.91,7.44-.16,5.74-.13,11.4-.09,17.39,.01,2.01,.02,4.04,.03,6.09Z"/>
    <path class="cls-1" d="M81.43,103.13c.55,.11,1.1,.23,1.65,.34,.52-1.49,1.36-2.95,1.5-4.47,.42-4.78,2.28-7.62,7.66-7.38,1.72,.08,3.49-1.12,5.24-1.74-.21-.88-.41-1.77-.62-2.65-4.73,.8-10.4,.26-13.94,2.75-4.17,2.93-2.07,8.62-1.5,13.15Z"/>
  </g>
  <g>
    <path d="M45.12,0V68.95H0V0H45.12ZM6.08,33.58c1.25,.23,2.35,.3,3.29-.77,.68-.77,1.59-1.34,2.36-2.04,.22-.2,.43-.5,.47-.79,.24-1.57,.43-3.14,.65-4.72,.62-4.52,1.24-9.04,1.86-13.56,.22-1.59,.43-3.18,.65-4.83-.69-.03-1.3-.12-1.92-.09-2.33,.12-3.78,1.34-4.12,3.44-.13,.81-.22,1.62-.33,2.43-.67,4.79-1.35,9.57-2.02,14.36-.31,2.18-.61,4.36-.91,6.55Zm31.38,.14c.16-1.13,.31-2.23,.48-3.34,.92-6.3,1.86-12.61,2.76-18.91,.41-2.84-2.05-5.12-4.87-4.53-.39,2.69-.79,5.38-1.17,8.08-.72,4.98-1.42,9.97-2.16,14.94-.07,.49-.04,.83,.37,1.17,.57,.48,1.15,.97,1.6,1.55,.77,.99,1.77,1.13,3,1.03Zm-.08,1.2c-1.13-.26-2.06-.3-2.91,.56-.76,.77-1.7,1.37-2.52,2.09-.23,.2-.41,.55-.45,.86-1,6.87-1.97,13.74-2.95,20.61-.12,.87-.23,1.74-.35,2.67,.66,.04,1.2,.11,1.74,.09,2.23-.06,3.67-1.2,4.04-3.22,.14-.76,.22-1.52,.33-2.28,.72-5.03,1.45-10.06,2.17-15.09,.3-2.08,.6-4.16,.9-6.29Zm-31.35-.12c-.05,.28-.11,.51-.14,.75-.58,3.95-1.16,7.9-1.74,11.85-.5,3.39-1.02,6.77-1.47,10.16-.34,2.56,2.11,4.73,4.67,4.17,.04-.23,.1-.48,.14-.72,.68-4.46,1.36-8.92,2.05-13.38,.46-3.01,.94-6.03,1.37-9.05,.05-.32-.01-.77-.21-1-.7-.81-1.46-1.56-2.23-2.3-.21-.2-.54-.33-.84-.38-.49-.08-.99-.07-1.6-.11Zm28.56-.64c-1.01-.95-1.95-1.85-2.92-2.73-.14-.12-.41-.13-.62-.13-5.95,0-11.91,0-17.86,.01-.21,0-.48,.02-.62,.14-1.12,.94-2.21,1.91-3.38,2.93,.81,.8,1.56,1.59,2.37,2.31,.26,.24,.68,.43,1.02,.43,5.85,.05,11.71,.07,17.56,.09,.24,0,.53-.02,.7-.15,1.24-.93,2.46-1.9,3.76-2.9Zm.1-27.22H16.36c-.25,1.92-.49,3.77-.73,5.67h18.22c.28-1.91,.55-3.78,.83-5.67Zm-6.95,49.11H9.41c-.25,1.91-.49,3.76-.74,5.71,1.63,0,3.14,0,4.65,0,4.32,.01,8.64,.02,12.95,.04,.33,0,.63,.02,.7-.44,.24-1.76,.5-3.52,.76-5.3Zm11.81,5.55c1.61,0,2.94-1.34,2.95-2.94,0-1.61-1.32-2.93-2.94-2.93-1.62,0-2.95,1.32-2.95,2.93,0,1.6,1.36,2.96,2.94,2.95Z"/>
    <path d="M100.67,0V68.95H55.55V0h45.12ZM61.63,33.58c1.25,.23,2.35,.3,3.29-.77,.68-.77,1.59-1.34,2.36-2.04,.22-.2,.43-.5,.47-.79,.24-1.57,.43-3.14,.65-4.72,.62-4.52,1.24-9.04,1.86-13.56,.22-1.59,.43-3.18,.65-4.83-.69-.03-1.3-.12-1.92-.09-2.33,.12-3.78,1.34-4.12,3.44-.13,.81-.22,1.62-.33,2.43-.67,4.79-1.35,9.57-2.02,14.36-.31,2.18-.61,4.36-.91,6.55Zm31.38,.14c.16-1.13,.31-2.23,.48-3.34,.92-6.3,1.86-12.61,2.76-18.91,.41-2.84-2.05-5.12-4.87-4.53-.39,2.69-.79,5.38-1.17,8.08-.72,4.98-1.42,9.97-2.16,14.94-.07,.49-.04,.83,.37,1.17,.57,.48,1.15,.97,1.6,1.55,.77,.99,1.77,1.13,3,1.03Zm-.08,1.2c-1.13-.26-2.06-.3-2.91,.56-.76,.77-1.7,1.37-2.52,2.09-.23,.2-.41,.55-.45,.86-1,6.87-1.97,13.74-2.95,20.61-.12,.87-.23,1.74-.35,2.67,.66,.04,1.2,.11,1.74,.09,2.23-.06,3.67-1.2,4.04-3.22,.14-.76,.22-1.52,.33-2.28,.72-5.03,1.45-10.06,2.17-15.09,.3-2.08,.6-4.16,.9-6.29Zm-31.35-.12c-.05,.28-.11,.51-.14,.75-.58,3.95-1.16,7.9-1.74,11.85-.5,3.39-1.02,6.77-1.47,10.16-.34,2.56,2.11,4.73,4.67,4.17,.04-.23,.1-.48,.14-.72,.68-4.46,1.36-8.92,2.05-13.38,.46-3.01,.94-6.03,1.37-9.05,.05-.32-.01-.77-.21-1-.7-.81-1.46-1.56-2.23-2.3-.21-.2-.54-.33-.84-.38-.49-.08-.99-.07-1.6-.11Zm28.56-.64c-1.01-.95-1.95-1.85-2.92-2.73-.14-.12-.41-.13-.62-.13-5.95,0-11.91,0-17.86,.01-.21,0-.48,.02-.62,.14-1.12,.94-2.21,1.91-3.38,2.93,.81,.8,1.56,1.59,2.37,2.31,.26,.24,.68,.43,1.02,.43,5.85,.05,11.71,.07,17.56,.09,.24,0,.53-.02,.7-.15,1.24-.93,2.46-1.9,3.76-2.9Zm.1-27.22h-18.32c-.25,1.92-.49,3.77-.73,5.67h18.22c.28-1.91,.55-3.78,.83-5.67Zm-6.95,49.11h-18.32c-.25,1.91-.49,3.76-.74,5.71,1.63,0,3.14,0,4.65,0,4.32,.01,8.64,.02,12.95,.04,.33,0,.63,.02,.7-.44,.24-1.76,.5-3.52,.76-5.3Zm11.81,5.55c1.61,0,2.94-1.34,2.95-2.94,0-1.61-1.32-2.93-2.94-2.93-1.62,0-2.95,1.32-2.95,2.93,0,1.6,1.36,2.96,2.94,2.95Z"/>
    <path d="M156.22,0V68.95h-45.12V0h45.12Zm-39.04,33.58c1.25,.23,2.35,.3,3.29-.77,.68-.77,1.59-1.34,2.36-2.04,.22-.2,.43-.5,.47-.79,.24-1.57,.43-3.14,.65-4.72,.62-4.52,1.24-9.04,1.86-13.56,.22-1.59,.43-3.18,.65-4.83-.69-.03-1.3-.12-1.92-.09-2.33,.12-3.78,1.34-4.12,3.44-.13,.81-.22,1.62-.33,2.43-.67,4.79-1.35,9.57-2.02,14.36-.31,2.18-.61,4.36-.91,6.55Zm31.38,.14c.16-1.13,.31-2.23,.48-3.34,.92-6.3,1.86-12.61,2.76-18.91,.41-2.84-2.05-5.12-4.87-4.53-.39,2.69-.79,5.38-1.17,8.08-.72,4.98-1.42,9.97-2.16,14.94-.07,.49-.04,.83,.37,1.17,.57,.48,1.15,.97,1.6,1.55,.77,.99,1.77,1.13,3,1.03Zm-.08,1.2c-1.13-.26-2.06-.3-2.91,.56-.76,.77-1.7,1.37-2.52,2.09-.23,.2-.41,.55-.45,.86-1,6.87-1.97,13.74-2.95,20.61-.12,.87-.23,1.74-.35,2.67,.66,.04,1.2,.11,1.74,.09,2.23-.06,3.67-1.2,4.04-3.22,.14-.76,.22-1.52,.33-2.28,.72-5.03,1.45-10.06,2.17-15.09,.3-2.08,.6-4.16,.9-6.29Zm-31.35-.12c-.05,.28-.11,.51-.14,.75-.58,3.95-1.16,7.9-1.74,11.85-.5,3.39-1.02,6.77-1.47,10.16-.34,2.56,2.11,4.73,4.67,4.17,.04-.23,.1-.48,.14-.72,.68-4.46,1.36-8.92,2.05-13.38,.46-3.01,.94-6.03,1.37-9.05,.05-.32-.01-.77-.21-1-.7-.81-1.46-1.56-2.23-2.3-.21-.2-.54-.33-.84-.38-.49-.08-.99-.07-1.6-.11Zm28.56-.64c-1.01-.95-1.95-1.85-2.92-2.73-.14-.12-.41-.13-.62-.13-5.95,0-11.91,0-17.86,.01-.21,0-.48,.02-.62,.14-1.12,.94-2.21,1.91-3.38,2.93,.81,.8,1.56,1.59,2.37,2.31,.26,.24,.68,.43,1.02,.43,5.85,.05,11.71,.07,17.56,.09,.24,0,.53-.02,.7-.15,1.24-.93,2.46-1.9,3.76-2.9Zm.1-27.22h-18.32c-.25,1.92-.49,3.77-.73,5.67h18.22c.28-1.91,.55-3.78,.83-5.67Zm-6.95,49.11h-18.32c-.25,1.91-.49,3.76-.74,5.71,1.63,0,3.14,0,4.65,0,4.32,.01,8.64,.02,12.95,.04,.33,0,.63,.02,.7-.44,.24-1.76,.5-3.52,.76-5.3Zm11.81,5.55c1.61,0,2.94-1.34,2.95-2.94,0-1.61-1.32-2.93-2.94-2.93-1.62,0-2.95,1.32-2.95,2.93,0,1.6,1.36,2.96,2.94,2.95Z"/>
    <path d="M211.77,0V68.95h-45.12V0h45.12Zm-39.04,33.58c1.25,.23,2.35,.3,3.29-.77,.68-.77,1.59-1.34,2.36-2.04,.22-.2,.43-.5,.47-.79,.24-1.57,.43-3.14,.65-4.72,.62-4.52,1.24-9.04,1.86-13.56,.22-1.59,.43-3.18,.65-4.83-.69-.03-1.3-.12-1.92-.09-2.33,.12-3.78,1.34-4.12,3.44-.13,.81-.22,1.62-.33,2.43-.67,4.79-1.35,9.57-2.02,14.36-.31,2.18-.61,4.36-.91,6.55Zm31.38,.14c.16-1.13,.31-2.23,.48-3.34,.92-6.3,1.86-12.61,2.76-18.91,.41-2.84-2.05-5.12-4.87-4.53-.39,2.69-.79,5.38-1.17,8.08-.72,4.98-1.42,9.97-2.16,14.94-.07,.49-.04,.83,.37,1.17,.57,.48,1.15,.97,1.6,1.55,.77,.99,1.77,1.13,3,1.03Zm-.08,1.2c-1.13-.26-2.06-.3-2.91,.56-.76,.77-1.7,1.37-2.52,2.09-.23,.2-.41,.55-.45,.86-1,6.87-1.97,13.74-2.95,20.61-.12,.87-.23,1.74-.35,2.67,.66,.04,1.2,.11,1.74,.09,2.23-.06,3.67-1.2,4.04-3.22,.14-.76,.22-1.52,.33-2.28,.72-5.03,1.45-10.06,2.17-15.09,.3-2.08,.6-4.16,.9-6.29Zm-31.35-.12c-.05,.28-.11,.51-.14,.75-.58,3.95-1.16,7.9-1.74,11.85-.5,3.39-1.02,6.77-1.47,10.16-.34,2.56,2.11,4.73,4.67,4.17,.04-.23,.1-.48,.14-.72,.68-4.46,1.36-8.92,2.05-13.38,.46-3.01,.94-6.03,1.37-9.05,.05-.32-.01-.77-.21-1-.7-.81-1.46-1.56-2.23-2.3-.21-.2-.54-.33-.84-.38-.49-.08-.99-.07-1.6-.11Zm28.56-.64c-1.01-.95-1.95-1.85-2.92-2.73-.14-.12-.41-.13-.62-.13-5.95,0-11.91,0-17.86,.01-.21,0-.48,.02-.62,.14-1.12,.94-2.21,1.91-3.38,2.93,.81,.8,1.56,1.59,2.37,2.31,.26,.24,.68,.43,1.02,.43,5.85,.05,11.71,.07,17.56,.09,.24,0,.53-.02,.7-.15,1.24-.93,2.46-1.9,3.76-2.9Zm.1-27.22h-18.32c-.25,1.92-.49,3.77-.73,5.67h18.22c.28-1.91,.55-3.78,.83-5.67Zm-6.95,49.11h-18.32c-.25,1.91-.49,3.76-.74,5.71,1.63,0,3.14,0,4.65,0,4.32,.01,8.64,.02,12.95,.04,.33,0,.63,.02,.7-.44,.24-1.76,.5-3.52,.76-5.3Zm11.81,5.55c1.61,0,2.94-1.34,2.95-2.94,0-1.61-1.32-2.93-2.94-2.93-1.62,0-2.95,1.32-2.95,2.93,0,1.6,1.36,2.96,2.94,2.95Z"/>
  </g>
</svg>